<svg width="668" height="900" fill="none" xmlns="http://www.w3.org/2000/svg"><path d="M18.465 190.806c-.15-1.208-.272-1.329-1.51-1.51 1.208-.151 1.329-.272 1.51-1.51.151 1.208.272 1.328 1.511 1.51-1.209.151-1.33.302-1.51 1.51zM31.782 24.33c-.151-1.208-.272-1.329-1.511-1.51 1.209-.151 1.33-.272 1.51-1.51.152 1.208.273 1.329 1.512 1.51-1.21.15-1.33.302-1.511 1.51zM117.229 129.383c-.151-1.209-.272-1.329-1.511-1.511 1.209-.151 1.33-.272 1.511-1.51.151 1.208.272 1.329 1.511 1.51-1.209.151-1.329.302-1.511 1.511zM208.951 38.703a1.118 1.118 0 11-2.237-.002 1.118 1.118 0 012.237.002zM54.895 89.22a1.118 1.118 0 11-2.236-.001 1.118 1.118 0 012.236 0zM60.25 192.583a1.117 1.117 0 11-2.235 0 1.117 1.117 0 012.235 0zM75.724 132.287a1.118 1.118 0 11-2.237 0 1.118 1.118 0 012.237 0z" fill="#fff" fill-opacity=".1"/><path d="M276.332 22.123a1.996 1.996 0 01-2.821 0 1.993 1.993 0 010-2.819 1.995 1.995 0 012.821 0c.779.779.779 2.04 0 2.82zM157.904 89.38a1.118 1.118 0 11-2.236-.001 1.118 1.118 0 012.236 0z" fill="#fff" fill-opacity=".15"/><path d="M95.405 15.083c-.151-1.209-.272-1.33-1.511-1.51 1.209-.152 1.33-.273 1.511-1.51.151 1.207.272 1.328 1.511 1.51-1.209.15-1.33.301-1.511 1.51zM124.196 93.13c-.152-1.207-.272-1.328-1.511-1.51 1.208-.15 1.329-.271 1.511-1.51.151 1.209.272 1.33 1.511 1.51-1.209.151-1.33.303-1.511 1.51zM445.223 395.39c.151 1.208.272 1.329 1.511 1.51-1.209.151-1.329.272-1.511 1.51-.151-1.208-.272-1.328-1.511-1.51 1.209-.151 1.33-.302 1.511-1.51zM528.821 151.605c.151 1.208.272 1.328 1.511 1.51-1.209.151-1.329.272-1.511 1.51-.151-1.208-.272-1.329-1.511-1.51 1.209-.151 1.33-.302 1.511-1.51zM515.505 318.08c.151 1.209.272 1.329 1.511 1.511-1.209.151-1.33.271-1.511 1.51-.151-1.208-.272-1.329-1.511-1.51 1.209-.151 1.329-.302 1.511-1.511zM430.057 213.028c.151 1.208.272 1.329 1.511 1.51-1.209.151-1.33.272-1.511 1.51-.151-1.208-.272-1.329-1.511-1.51 1.209-.151 1.33-.302 1.511-1.51zM554.05 397.293a1.119 1.119 0 112.237.001 1.119 1.119 0 01-2.237-.001zM338.336 303.708a1.117 1.117 0 112.235-.001 1.117 1.117 0 01-2.235.001zM492.391 253.191a1.119 1.119 0 112.237.001 1.119 1.119 0 01-2.237-.001zM487.037 149.828a1.118 1.118 0 112.236 0 1.118 1.118 0 01-2.236 0zM471.563 210.123a1.117 1.117 0 112.234 0 1.117 1.117 0 01-2.234 0z" fill="#fff" fill-opacity=".1"/><path d="M264.899 385.346a1.994 1.994 0 111.615 3.647 1.994 1.994 0 01-1.615-3.647zM419.071 368.674a1.994 1.994 0 113.987.001 1.994 1.994 0 01-3.987-.001zM270.955 320.287a1.995 1.995 0 012.82 0 1.994 1.994 0 11-2.82 0zM296.167 369.55a1.117 1.117 0 112.234 0 1.117 1.117 0 01-2.234 0zM389.382 253.031a1.119 1.119 0 012.237 0 1.118 1.118 0 01-2.237 0z" fill="#fff" fill-opacity=".15"/><path d="M451.881 327.328c.151 1.208.272 1.329 1.511 1.51-1.208.151-1.329.272-1.511 1.51-.151-1.208-.272-1.329-1.511-1.51 1.209-.151 1.33-.302 1.511-1.51zM346.521 375.417c.151 1.208.272 1.329 1.511 1.51-1.209.151-1.33.272-1.511 1.51-.151-1.208-.272-1.329-1.511-1.51 1.209-.151 1.33-.302 1.511-1.51zM423.091 249.28c.151 1.208.272 1.329 1.511 1.51-1.209.151-1.33.272-1.511 1.51-.151-1.208-.272-1.329-1.511-1.51 1.209-.151 1.33-.302 1.511-1.51zM490.783 364.319c.151 1.209.272 1.329 1.511 1.511-1.209.151-1.33.272-1.511 1.51-.151-1.208-.272-1.329-1.511-1.51 1.209-.151 1.33-.302 1.511-1.511zM582.659 598.202c.15-1.208.271-1.329 1.51-1.51-1.208-.151-1.329-.272-1.51-1.511-.152 1.209-.273 1.329-1.511 1.511 1.208.151 1.329.302 1.511 1.51zM666.302 740.362c.151-1.208.272-1.329 1.511-1.51-1.209-.152-1.329-.272-1.511-1.511-.151 1.209-.272 1.329-1.511 1.511 1.209.151 1.33.302 1.511 1.51zM570.063 732.025c.151-1.209.272-1.329 1.511-1.511-1.209-.151-1.33-.271-1.511-1.51-.151 1.208-.272 1.329-1.511 1.51 1.208.151 1.329.302 1.511 1.511zM405.231 640.139c.151-1.208.272-1.329 1.511-1.51-1.209-.151-1.33-.272-1.511-1.51-.151 1.208-.272 1.329-1.511 1.51 1.209.151 1.33.302 1.511 1.51zM493.944 544.196c.151-1.208.272-1.329 1.511-1.51-1.209-.152-1.33-.272-1.511-1.511-.151 1.208-.272 1.329-1.511 1.511 1.208.15 1.329.302 1.511 1.51zM513.152 590.203a1.118 1.118 0 102.235-.001 1.118 1.118 0 00-2.235.001zM347.061 698.068a1.117 1.117 0 102.234 0 1.117 1.117 0 00-2.234 0zM603.773 622.607a1.119 1.119 0 002.237 0 1.118 1.118 0 00-2.237 0zM392.594 540.118a1.118 1.118 0 102.236-.002 1.118 1.118 0 00-2.236.002zM630.406 665.886a1.118 1.118 0 102.236-.002 1.118 1.118 0 00-2.236.002zM595.618 755.133a1.117 1.117 0 102.235.001 1.117 1.117 0 00-2.235-.001zM575.599 646.651a1.118 1.118 0 102.236 0 1.118 1.118 0 00-2.236 0z" fill="#fff" fill-opacity=".1"/><path d="M591.275 690.136a1.994 1.994 0 101.615-3.647 1.994 1.994 0 00-1.615 3.647zM444.571 684.59a1.994 1.994 0 103.989 0 1.994 1.994 0 00-3.989 0zM510.71 651.624a1.997 1.997 0 002.821 0 1.995 1.995 0 10-2.821 0zM582.627 548.997a1.118 1.118 0 102.235-.001 1.118 1.118 0 00-2.235.001zM460.251 580.068a1.119 1.119 0 102.237-.001 1.119 1.119 0 00-2.237.001z" fill="#fff" fill-opacity=".15"/><path d="M448.673 754.061c.152-1.209.272-1.329 1.511-1.511-1.208-.151-1.329-.272-1.511-1.51-.151 1.208-.271 1.329-1.51 1.51 1.208.151 1.329.302 1.51 1.511zM361.149 611.148c.151-1.208.271-1.329 1.51-1.51-1.208-.151-1.329-.272-1.51-1.51-.152 1.208-.272 1.328-1.511 1.51 1.208.151 1.329.302 1.511 1.51zM305.51 663.768c.151-1.208.272-1.329 1.511-1.51-1.209-.151-1.329-.272-1.511-1.511-.151 1.209-.272 1.329-1.511 1.511 1.209.151 1.33.302 1.511 1.51zM391.3 775.957c.152 1.208.272 1.329 1.511 1.51-1.208.151-1.329.272-1.511 1.51-.151-1.208-.272-1.329-1.511-1.51 1.209-.151 1.33-.302 1.511-1.51zM295.061 784.294c.151 1.208.272 1.329 1.511 1.51-1.209.152-1.33.272-1.511 1.511-.151-1.209-.272-1.329-1.511-1.511 1.209-.15 1.329-.302 1.511-1.51zM95.764 718c.151 1.208.272 1.329 1.511 1.51-1.209.151-1.33.272-1.51 1.51-.152-1.208-.273-1.329-1.512-1.51 1.209-.151 1.33-.302 1.511-1.51zM72.059 818.251a1.117 1.117 0 112.235 0 1.117 1.117 0 01-2.235 0zM328.772 893.712a1.118 1.118 0 112.236 0 1.118 1.118 0 01-2.236 0zM355.405 850.433a1.118 1.118 0 112.236 0 1.118 1.118 0 01-2.236 0zM320.616 761.185a1.117 1.117 0 112.234 0 1.117 1.117 0 01-2.234 0zM300.597 869.668a1.118 1.118 0 112.236 0 1.118 1.118 0 01-2.236 0z" fill="#fff" fill-opacity=".1"/><path d="M316.273 826.183a1.994 1.994 0 111.615 3.647 1.994 1.994 0 01-1.615-3.647zM169.569 831.728a1.993 1.993 0 113.987 0 1.993 1.993 0 01-3.987 0zM235.709 864.695a1.995 1.995 0 012.82 0 1.994 1.994 0 11-2.82 0z" fill="#fff" fill-opacity=".15"/><path d="M173.672 762.258c.151 1.208.272 1.329 1.511 1.511-1.209.151-1.33.271-1.511 1.51-.151-1.208-.272-1.329-1.511-1.51 1.208-.151 1.329-.303 1.511-1.511zM32.51 752.031c.152 1.208.273 1.329 1.512 1.51-1.209.151-1.33.272-1.511 1.51-.151-1.208-.272-1.328-1.511-1.51 1.209-.151 1.33-.302 1.51-1.51z" fill="#fff" fill-opacity=".1"/></svg>
